<?xml version="1.0" encoding="UTF-8" standalone="no"?>
<!-- Created with Inkscape (http://www.inkscape.org/) -->

<svg
   version="1.1"
   id="svg1"
   width="374.25201"
   height="54.814667"
   viewBox="0 0 374.25201 54.814667"
   sodipodi:docname="Gen__figs-52.pdf"
   inkscape:export-filename="Gen__figs-52.svg"
   inkscape:export-xdpi="250.10001"
   inkscape:export-ydpi="250.10001"
   xmlns:inkscape="http://www.inkscape.org/namespaces/inkscape"
   xmlns:sodipodi="http://sodipodi.sourceforge.net/DTD/sodipodi-0.dtd"
   xmlns="http://www.w3.org/2000/svg"
   xmlns:svg="http://www.w3.org/2000/svg">
  <defs
     id="defs1" />
  <sodipodi:namedview
     id="namedview1"
     pagecolor="#ffffff"
     bordercolor="#000000"
     borderopacity="0.25"
     inkscape:showpageshadow="2"
     inkscape:pageopacity="0.0"
     inkscape:pagecheckerboard="0"
     inkscape:deskcolor="#d1d1d1"
     inkscape:zoom="2.1764498"
     inkscape:cx="182.17742"
     inkscape:cy="21.824533"
     inkscape:window-width="1408"
     inkscape:window-height="596"
     inkscape:window-x="0"
     inkscape:window-y="25"
     inkscape:window-maximized="0"
     inkscape:current-layer="g1"
     inkscape:export-bgcolor="#ffffffff">
    <inkscape:page
       x="0"
       y="0"
       inkscape:label="1"
       id="page1"
       width="374.25201"
       height="54.814667"
       margin="0"
       bleed="0" />
  </sodipodi:namedview>
  <g
     id="g1"
     inkscape:groupmode="layer"
     inkscape:label="1">
    <g
       id="g2"
       aria-label="Ψ&#10;σ&#10;="
       transform="matrix(1.3333333,0,0,1.3333333,5.5613333,31.246667)">
      <path
         id="path2"
         d="m 4.2547812,-6.0121484 c 0,-0.3398438 0,-0.4804688 0.9492188,-0.4804688 h 0.328125 v -0.3164062 c -0.3632813,0.035156 -1.2773438,0.035156 -1.6875,0.035156 -0.4101563,0 -1.3359375,0 -1.6875,-0.035156 v 0.3164062 H 2.48525 c 0.9375,0 0.9375,0.1289063 0.9375,0.4804688 v 4.4179687 C 2.1219687,-1.9457422 2.0750937,-3.4808984 2.0750937,-4.1254297 2.063375,-5.3324609 1.6297812,-5.5199609 1.1844687,-5.5199609 H 0.8211875 c -0.15234375,0 -0.2578125,0 -0.2578125,0.1054687 0,0.058594 0.0351563,0.1054688 0.09375,0.1171875 0.328125,0.035156 0.5742187,0.1757813 0.5859375,1.3476563 0,0.234375 0.035156,1.0195312 0.515625,1.6875 0.3867187,0.5390625 0.9960937,0.8320312 1.6640625,0.9140625 v 0.56249996 c 0,0.33984375 0,0.48046875 -0.9375,0.48046875 H 2.157125 V -4.296875e-4 C 2.5086875,-0.03558594 3.42275,-0.03558594 3.8329062,-0.03558594 c 0.4101563,0 1.3359375,0 1.6992188,0.0351562525 V -0.30511719 H 5.204 c -0.9492188,0 -0.9492188,-0.12890625 -0.9492188,-0.48046875 V -1.3480859 C 4.969625,-1.4301172 5.579,-1.7348047 5.9657187,-2.2504297 c 0.515625,-0.703125 0.5273438,-1.5 0.5273438,-1.9335937 0,-0.1640625 0.011719,-1.0429688 0.5507812,-1.1132813 0.058594,-0.011719 0.1289063,-0.023437 0.1289063,-0.1171875 0,-0.1054687 -0.082031,-0.1054687 -0.234375,-0.1054687 H 6.5516562 c -0.3867187,0 -0.8671875,0.070312 -0.8789062,1.5117187 -0.011719,1.1015625 -0.3398438,2.15625 -1.4179688,2.4140625 z m 0,0"
         style="fill:#000000;fill-opacity:1;fill-rule:nonzero;stroke:none" />
      <path
         id="path3"
         d="m 10.339742,-7.2074609 c -1.4999998,0 -2.2031248,1.2421875 -2.2031248,2.0039062 0,0.7265625 0.5742187,1.1484375 1.4765625,1.1484375 1.4179683,0 2.1796873,-0.9492187 2.1796873,-1.8984375 0,-0.1523437 -0.02344,-0.3398437 -0.09375,-0.5039062 h 0.703125 c 0.152344,0 0.246094,0 0.386719,-0.1054688 0.05859,-0.058594 0.152344,-0.1757812 0.152344,-0.328125 0,-0.3164062 -0.28125,-0.3164062 -0.410157,-0.3164062 z m -0.7031248,2.8242187 c -0.4570313,0 -0.6914063,-0.1875 -0.6914063,-0.5859375 0,-0.2226562 0.1171875,-0.84375 0.328125,-1.1132812 0.2109375,-0.2695313 0.46875,-0.375 0.9492191,-0.375 0.527343,0 0.726562,0.1289062 0.726562,0.4804687 0,0.1171875 -0.09375,0.796875 -0.386719,1.171875 -0.222656,0.28125 -0.5624996,0.421875 -0.9257808,0.421875 z m 0,0"
         style="fill:#000000;fill-opacity:1;fill-rule:nonzero;stroke:none" />
      <path
         id="path4"
         d="m 23.496969,-3.2582422 c 0.152343,0 0.339843,0 0.339843,-0.1992187 0,-0.1992188 -0.1875,-0.1992188 -0.328125,-0.1992188 h -5.964843 c -0.140625,0 -0.328125,0 -0.328125,0.1992188 0,0.1992187 0.1875,0.1992187 0.339843,0.1992187 z m 0.01172,1.9335938 c 0.140625,0 0.328125,0 0.328125,-0.1992188 0,-0.1992187 -0.1875,-0.1992187 -0.339843,-0.1992187 h -5.941407 c -0.152343,0 -0.339843,0 -0.339843,0.1992187 0,0.1992188 0.1875,0.1992188 0.328125,0.1992188 z m 0,0"
         style="fill:#000000;fill-opacity:1;fill-rule:nonzero;stroke:none" />
    </g>
    <path
       id="path5"
       d="m 15.94505,3.73604 h 17.52408 c 2.06337,0 3.73604,-1.67267 3.73604,-3.73604 0,-2.06337 -1.67267,-3.73604 -3.73604,-3.73604 H -1.579 c -2.06336,0 -3.73603,1.67267 -3.73603,3.73604 0,2.06337 1.67267,3.73604 3.73603,3.73604 z"
       style="fill:#32d2c0;fill-opacity:0.9;fill-rule:nonzero;stroke:#000000;stroke-width:0.3985;stroke-linecap:butt;stroke-linejoin:miter;stroke-miterlimit:10;stroke-dasharray:none;stroke-opacity:0.9"
       transform="matrix(1.3333333,0,0,-1.3333333,50.634667,27.925333)" />
    <path
       id="path6"
       d="M 8.5e-4,3.73613 V 9.05116"
       style="fill:none;stroke:#000000;stroke-width:0.3985;stroke-linecap:butt;stroke-linejoin:miter;stroke-miterlimit:10;stroke-dasharray:none;stroke-opacity:1"
       transform="matrix(1.3333333,0,0,-1.3333333,50.634667,27.925333)" />
    <path
       id="path7"
       d="M 4.55647,3.73613 V 9.05116"
       style="fill:none;stroke:#000000;stroke-width:0.3985;stroke-linecap:butt;stroke-linejoin:miter;stroke-miterlimit:10;stroke-dasharray:none;stroke-opacity:1"
       transform="matrix(1.3333333,0,0,-1.3333333,50.634667,27.925333)" />
    <path
       id="path8"
       d="M 9.11206,3.73613 V 9.05116"
       style="fill:none;stroke:#000000;stroke-width:0.3985;stroke-linecap:butt;stroke-linejoin:miter;stroke-miterlimit:10;stroke-dasharray:none;stroke-opacity:1"
       transform="matrix(1.3333333,0,0,-1.3333333,50.634667,27.925333)" />
    <path
       id="path9"
       d="M 13.66766,3.73613 V 9.05116"
       style="fill:none;stroke:#000000;stroke-width:0.3985;stroke-linecap:butt;stroke-linejoin:miter;stroke-miterlimit:10;stroke-dasharray:none;stroke-opacity:1"
       transform="matrix(1.3333333,0,0,-1.3333333,50.634667,27.925333)" />
    <path
       id="path10"
       d="M 18.22325,3.73613 V 9.05116"
       style="fill:none;stroke:#000000;stroke-width:0.3985;stroke-linecap:butt;stroke-linejoin:miter;stroke-miterlimit:10;stroke-dasharray:none;stroke-opacity:1"
       transform="matrix(1.3333333,0,0,-1.3333333,50.634667,27.925333)" />
    <path
       id="path11"
       d="M 22.77887,3.73613 V 9.05116"
       style="fill:none;stroke:#000000;stroke-width:0.3985;stroke-linecap:butt;stroke-linejoin:miter;stroke-miterlimit:10;stroke-dasharray:none;stroke-opacity:1"
       transform="matrix(1.3333333,0,0,-1.3333333,50.634667,27.925333)" />
    <path
       id="path12"
       d="M 27.33446,3.73613 V 9.05116"
       style="fill:none;stroke:#000000;stroke-width:0.3985;stroke-linecap:butt;stroke-linejoin:miter;stroke-miterlimit:10;stroke-dasharray:none;stroke-opacity:1"
       transform="matrix(1.3333333,0,0,-1.3333333,50.634667,27.925333)" />
    <path
       id="path13"
       d="M 31.89006,3.73613 V 9.05116"
       style="fill:none;stroke:#000000;stroke-width:0.3985;stroke-linecap:butt;stroke-linejoin:miter;stroke-miterlimit:10;stroke-dasharray:none;stroke-opacity:1"
       transform="matrix(1.3333333,0,0,-1.3333333,50.634667,27.925333)" />
    <path
       id="path14"
       d="m 7.1938672,-4.5004297 c 0,-0.2109375 -0.070312,-0.3046875 -0.140625,-0.3046875 -0.046875,0 -0.1289063,0.046875 -0.140625,0.2695313 -0.035156,0.6914062 -0.7382813,1.1015625 -1.3828125,1.1015625 -0.5859375,0 -1.078125,-0.3164063 -1.59375,-0.65625 -0.5390625,-0.3632813 -1.078125,-0.7265625 -1.7226563,-0.7265625 -0.9257812,0 -1.66406246,0.7148437 -1.66406246,1.6289062 0,0.2226563 0.0820313,0.2929688 0.140625,0.2929688 0.09375,0 0.140625,-0.1875 0.140625,-0.2226563 0.046875,-0.8320312 0.86718746,-1.1367187 1.38281246,-1.1367187 0.5742188,0 1.078125,0.3046875 1.59375,0.65625 0.5390625,0.3632812 1.078125,0.7148437 1.7226563,0.7148437 0.9257812,0 1.6640625,-0.703125 1.6640625,-1.6171875 z m 0,2.3320313 c 0,-0.2929688 -0.1171875,-0.3164063 -0.140625,-0.3164063 -0.046875,0 -0.1289063,0.058594 -0.140625,0.2695313 -0.035156,0.6914062 -0.7382813,1.1015625 -1.3828125,1.1015625 -0.5859375,0 -1.078125,-0.3164063 -1.59375,-0.65625 -0.5390625,-0.3632813 -1.078125,-0.7265625 -1.7226563,-0.7265625 -0.9257812,0 -1.66406246,0.7148437 -1.66406246,1.62890621 0,0.22265625 0.0820313,0.3046875 0.140625,0.3046875 0.09375,0 0.140625,-0.19921875 0.140625,-0.234375 0.046875,-0.83203121 0.86718746,-1.13671871 1.38281246,-1.13671871 0.5742188,0 1.078125,0.3046875 1.59375,0.65625 0.5390625,0.36328121 1.078125,0.71484371 1.7226563,0.71484371 0.9492187,0 1.6640625,-0.73828121 1.6640625,-1.60546871 z m 0,0"
       style="fill:#000000;fill-opacity:1;fill-rule:nonzero;stroke:none"
       aria-label="≈"
       transform="matrix(1.3333333,0,0,1.3333333,105.69333,31.246667)" />
    <path
       id="path15"
       d="m 24.99614,0 c 0,2.06337 -1.67267,3.73604 -3.73604,3.73604 -2.06338,0 -3.73604,-1.67267 -3.73604,-3.73604 0,-2.06337 1.67266,-3.73604 3.73604,-3.73604 2.06337,0 3.73604,1.67267 3.73604,3.73604 z"
       style="fill:#32d2c0;fill-opacity:0.9;fill-rule:nonzero;stroke:#000000;stroke-width:0.3985;stroke-linecap:butt;stroke-linejoin:miter;stroke-miterlimit:10;stroke-dasharray:none;stroke-opacity:0.9"
       transform="matrix(1.3333333,0,0,-1.3333333,104.34267,27.925333)" />
    <g
       id="g15"
       aria-label="A&#10;σ&#10;1"
       transform="matrix(1.3333333,0,0,1.3333333,121.70667,48.625333)">
      <path
         id="path16"
         d="m 1.7815234,-1.1486875 c -0.3984375,0.66796875 -0.78515621,0.80859375 -1.21874996,0.84375 -0.12890625,0 -0.2109375,0 -0.2109375,0.19921875 0,0.05859375 0.046875,0.10546875 0.12890625,0.10546875 0.26953125,0 0.57421871,-0.03515625 0.85546871,-0.03515625 0.328125,0 0.6796875,0.03515625 0.9960938,0.03515625 0.058594,0 0.1875,0 0.1875,-0.1875 0,-0.1171875 -0.09375,-0.1171875 -0.1640625,-0.1171875 C 2.1330859,-0.328375 1.8987109,-0.41040625 1.8987109,-0.6565 c 0,-0.1171875 0.058594,-0.234375 0.1289063,-0.375 l 0.7617187,-1.265625 h 2.4960938 c 0.023437,0.1992188 0.1640625,1.55859375 0.1640625,1.6640625 0,0.29296875 -0.515625,0.328125 -0.7148438,0.328125 -0.140625,0 -0.2460937,0 -0.2460937,0.19921875 0,0.10546875 0.1289062,0.10546875 0.140625,0.10546875 0.4101562,0 0.84375,-0.03515625 1.2539062,-0.03515625 0.2460938,0 0.8671875,0.03515625 1.125,0.03515625 0.058594,0 0.1757813,0 0.1757813,-0.19921875 0,-0.10546875 -0.1054688,-0.10546875 -0.234375,-0.10546875 -0.609375,0 -0.609375,-0.0703125 -0.6445313,-0.36328125 L 5.6955859,-6.890875 c -0.011719,-0.1992187 -0.011719,-0.2460937 -0.1875,-0.2460937 -0.1640625,0 -0.1992187,0.070312 -0.2578125,0.1757812 z m 1.1953125,-1.4648437 1.96875,-3.28125 0.3164063,3.28125 z m 0,0"
         style="fill:#000000;fill-opacity:1;fill-rule:nonzero;stroke:none" />
      <path
         id="path17"
         d="m 11.549102,-6.1467344 c 0.117187,0 0.1875,0 0.257812,-0.058594 0.09375,-0.070312 0.117188,-0.1757813 0.117188,-0.2226563 0,-0.1875 -0.1875,-0.1875 -0.304688,-0.1875 H 9.8381641 c -1.1132813,0 -1.9570313,1.1015625 -1.9570313,1.9335938 0,0.6445312 0.4804688,1.1367187 1.1953125,1.1367187 0.8789063,0 1.8867187,-0.796875 1.8867187,-1.8632812 0,-0.1054688 0,-0.421875 -0.210937,-0.7382813 z m -2.4726567,2.4023438 c -0.375,0 -0.6796875,-0.2460938 -0.6796875,-0.7382813 0,-0.2109375 0.1171875,-1.6640625 1.3242188,-1.6640625 0.3515624,0 0.7148434,0.1289063 0.7148434,0.6679688 0,0.1171875 -0.05859,0.75 -0.410156,1.21875 -0.2929687,0.375 -0.6796874,0.515625 -0.9492187,0.515625 z m 0,0"
         style="fill:#000000;fill-opacity:1;fill-rule:nonzero;stroke:none" />
      <path
         id="path18"
         d="m 14.068633,-5.7834531 c 0,-0.1523438 -0.01172,-0.1523438 -0.175781,-0.1523438 -0.351563,0.3164063 -0.902344,0.3164063 -1.007813,0.3164063 h -0.08203 v 0.2226562 h 0.08203 c 0.117188,0 0.433594,-0.011719 0.726563,-0.140625 v 2.484375 c 0,0.1640625 0,0.2109375 -0.527344,0.2109375 h -0.246094 v 0.2226563 c 0.269531,-0.023437 0.714844,-0.023437 1.007813,-0.023437 0.28125,0 0.726562,0 0.996093,0.023437 v -0.2226563 h -0.246093 c -0.527344,0 -0.527344,-0.046875 -0.527344,-0.2109375 z m 0,0"
         style="fill:#000000;fill-opacity:1;fill-rule:nonzero;stroke:none" />
    </g>
    <path
       id="path19"
       d="m 67.51634,0 c 0,2.06337 -1.67265,3.73604 -3.73604,3.73604 -2.06338,0 -3.73603,-1.67267 -3.73603,-3.73604 0,-2.06337 1.67265,-3.73604 3.73603,-3.73604 2.06339,0 3.73604,1.67267 3.73604,3.73604 z"
       style="fill:#32d2c0;fill-opacity:0.9;fill-rule:nonzero;stroke:#000000;stroke-width:0.3985;stroke-linecap:butt;stroke-linejoin:miter;stroke-miterlimit:10;stroke-dasharray:none;stroke-opacity:0.9"
       transform="matrix(1.3333333,0,0,-1.3333333,104.34267,27.925333)" />
    <g
       id="g19"
       aria-label="A&#10;σ&#10;2"
       transform="matrix(1.3333333,0,0,1.3333333,178.40133,48.625333)">
      <path
         id="path20"
         d="m 1.7820078,-1.1486875 c -0.3984375,0.66796875 -0.78515624,0.80859375 -1.21874999,0.84375 -0.12890625,0 -0.2109375,0 -0.2109375,0.19921875 0,0.05859375 0.046875,0.10546875 0.12890625,0.10546875 0.26953125,0 0.57421874,-0.03515625 0.85546874,-0.03515625 0.328125,0 0.6796875,0.03515625 0.9960938,0.03515625 0.058594,0 0.1875,0 0.1875,-0.1875 0,-0.1171875 -0.09375,-0.1171875 -0.1640625,-0.1171875 C 2.1335703,-0.328375 1.8991953,-0.41040625 1.8991953,-0.6565 c 0,-0.1171875 0.058594,-0.234375 0.1289063,-0.375 l 0.7617187,-1.265625 h 2.4960938 c 0.023437,0.1992188 0.1640625,1.55859375 0.1640625,1.6640625 0,0.29296875 -0.515625,0.328125 -0.7148438,0.328125 -0.140625,0 -0.2460937,0 -0.2460937,0.19921875 0,0.10546875 0.1289062,0.10546875 0.140625,0.10546875 0.4101562,0 0.84375,-0.03515625 1.2539062,-0.03515625 0.2460938,0 0.8671875,0.03515625 1.125,0.03515625 0.058594,0 0.1757813,0 0.1757813,-0.19921875 0,-0.10546875 -0.1054688,-0.10546875 -0.234375,-0.10546875 -0.609375,0 -0.609375,-0.0703125 -0.6445313,-0.36328125 L 5.6960703,-6.890875 c -0.011719,-0.1992187 -0.011719,-0.2460937 -0.1875,-0.2460937 -0.1640625,0 -0.1992187,0.070312 -0.2578125,0.1757812 z m 1.1953125,-1.4648437 1.96875,-3.28125 0.3164063,3.28125 z m 0,0"
         style="fill:#000000;fill-opacity:1;fill-rule:nonzero;stroke:none" />
      <path
         id="path21"
         d="m 11.549586,-6.1467344 c 0.117187,0 0.1875,0 0.257812,-0.058594 0.09375,-0.070312 0.117188,-0.1757813 0.117188,-0.2226563 0,-0.1875 -0.1875,-0.1875 -0.304688,-0.1875 H 9.8386484 c -1.1132812,0 -1.9570312,1.1015625 -1.9570312,1.9335938 0,0.6445312 0.4804687,1.1367187 1.1953125,1.1367187 0.8789062,0 1.8867183,-0.796875 1.8867183,-1.8632812 0,-0.1054688 0,-0.421875 -0.210937,-0.7382813 z m -2.4726563,2.4023438 c -0.375,0 -0.6796875,-0.2460938 -0.6796875,-0.7382813 0,-0.2109375 0.1171875,-1.6640625 1.3242187,-1.6640625 0.3515621,0 0.7148441,0.1289063 0.7148441,0.6679688 0,0.1171875 -0.05859,0.75 -0.410157,1.21875 -0.2929683,0.375 -0.6796871,0.515625 -0.9492183,0.515625 z m 0,0"
         style="fill:#000000;fill-opacity:1;fill-rule:nonzero;stroke:none" />
      <path
         id="path22"
         d="m 15.018336,-3.5803281 h -0.210938 c -0.01172,0.09375 -0.05859,0.3984375 -0.140625,0.4570312 -0.03516,0.023437 -0.457031,0.023437 -0.527343,0.023437 h -0.984375 c 0.328125,-0.2460937 0.703125,-0.515625 0.996093,-0.7148437 0.457032,-0.3164063 0.867188,-0.5976563 0.867188,-1.125 0,-0.6445313 -0.597656,-0.9960938 -1.3125,-0.9960938 -0.667969,0 -1.160156,0.3867188 -1.160156,0.8789063 0,0.2578125 0.210937,0.3046875 0.28125,0.3046875 0.140625,0 0.292968,-0.09375 0.292968,-0.2929688 0,-0.1875 -0.128906,-0.28125 -0.28125,-0.2929687 0.140625,-0.234375 0.433594,-0.375 0.761719,-0.375 0.480469,0 0.890625,0.28125 0.890625,0.7734375 0,0.421875 -0.292969,0.7382812 -0.679687,1.0546875 l -1.207032,1.03125 c -0.04687,0.046875 -0.05859,0.046875 -0.05859,0.082031 v 0.1523438 h 2.308593 z m 0,0"
         style="fill:#000000;fill-opacity:1;fill-rule:nonzero;stroke:none" />
    </g>
    <path
       id="path23"
       d="m 110.03656,0 c 0,2.06337 -1.67266,3.73604 -3.73604,3.73604 -2.06337,0 -3.73604,-1.67267 -3.73604,-3.73604 0,-2.06337 1.67267,-3.73604 3.73604,-3.73604 2.06338,0 3.73604,1.67267 3.73604,3.73604 z"
       style="fill:#32d2c0;fill-opacity:0.9;fill-rule:nonzero;stroke:#000000;stroke-width:0.3985;stroke-linecap:butt;stroke-linejoin:miter;stroke-miterlimit:10;stroke-dasharray:none;stroke-opacity:0.9"
       transform="matrix(1.3333333,0,0,-1.3333333,104.34267,27.925333)" />
    <g
       id="g23"
       aria-label="A&#10;σ&#10;3"
       transform="matrix(1.3333333,0,0,1.3333333,235.096,48.625333)">
      <path
         id="path24"
         d="m 1.7824922,-1.1486875 c -0.3984375,0.66796875 -0.78515626,0.80859375 -1.21875001,0.84375 -0.12890625,0 -0.2109375,0 -0.2109375,0.19921875 0,0.05859375 0.046875,0.10546875 0.12890625,0.10546875 0.26953125,0 0.57421876,-0.03515625 0.85546876,-0.03515625 0.328125,0 0.6796875,0.03515625 0.9960937,0.03515625 0.058594,0 0.1875,0 0.1875,-0.1875 0,-0.1171875 -0.09375,-0.1171875 -0.1640625,-0.1171875 C 2.1340547,-0.328375 1.8996797,-0.41040625 1.8996797,-0.6565 c 0,-0.1171875 0.058594,-0.234375 0.1289062,-0.375 l 0.7617188,-1.265625 h 2.4960937 c 0.023437,0.1992188 0.1640625,1.55859375 0.1640625,1.6640625 0,0.29296875 -0.515625,0.328125 -0.7148437,0.328125 -0.140625,0 -0.2460938,0 -0.2460938,0.19921875 0,0.10546875 0.1289063,0.10546875 0.140625,0.10546875 0.4101563,0 0.84375,-0.03515625 1.2539063,-0.03515625 0.2460937,0 0.8671875,0.03515625 1.125,0.03515625 0.058594,0 0.1757812,0 0.1757812,-0.19921875 0,-0.10546875 -0.1054687,-0.10546875 -0.234375,-0.10546875 -0.609375,0 -0.609375,-0.0703125 -0.6445312,-0.36328125 L 5.6965547,-6.890875 c -0.011719,-0.1992187 -0.011719,-0.2460937 -0.1875,-0.2460937 -0.1640625,0 -0.1992188,0.070312 -0.2578125,0.1757812 z m 1.1953125,-1.4648437 1.96875,-3.28125 0.3164062,3.28125 z m 0,0"
         style="fill:#000000;fill-opacity:1;fill-rule:nonzero;stroke:none" />
      <path
         id="path25"
         d="m 11.55007,-6.1467344 c 0.117188,0 0.1875,0 0.257813,-0.058594 0.09375,-0.070312 0.117187,-0.1757813 0.117187,-0.2226563 0,-0.1875 -0.1875,-0.1875 -0.304687,-0.1875 H 9.8391328 c -1.1132812,0 -1.9570312,1.1015625 -1.9570312,1.9335938 0,0.6445312 0.4804687,1.1367187 1.1953125,1.1367187 0.8789062,0 1.8867189,-0.796875 1.8867189,-1.8632812 0,-0.1054688 0,-0.421875 -0.210938,-0.7382813 z m -2.4726559,2.4023438 c -0.375,0 -0.6796875,-0.2460938 -0.6796875,-0.7382813 0,-0.2109375 0.1171875,-1.6640625 1.3242187,-1.6640625 0.3515627,0 0.7148437,0.1289063 0.7148437,0.6679688 0,0.1171875 -0.05859,0.75 -0.410156,1.21875 -0.2929689,0.375 -0.6796877,0.515625 -0.9492189,0.515625 z m 0,0"
         style="fill:#000000;fill-opacity:1;fill-rule:nonzero;stroke:none" />
      <path
         id="path26"
         d="m 13.729758,-4.2717344 c 0.457031,0 0.761719,0.2929688 0.761719,0.7851563 0,0.5039062 -0.304688,0.7734375 -0.75,0.7734375 -0.05859,0 -0.65625,0 -0.902344,-0.2578125 0.199219,-0.035156 0.257812,-0.1875 0.257812,-0.3046875 0,-0.1875 -0.140625,-0.3046875 -0.304687,-0.3046875 -0.152344,0 -0.304688,0.1054687 -0.304688,0.3164062 0,0.515625 0.585938,0.75 1.265625,0.75 0.820313,0 1.324219,-0.4921875 1.324219,-0.9726562 0,-0.4101563 -0.363281,-0.7617188 -0.925781,-0.890625 0.597656,-0.1875 0.75,-0.5625 0.75,-0.84375 0,-0.4101563 -0.503906,-0.7148438 -1.136719,-0.7148438 -0.609375,0 -1.101562,0.2578125 -1.101562,0.703125 0,0.234375 0.1875,0.2929688 0.28125,0.2929688 0.140625,0 0.28125,-0.1054688 0.28125,-0.28125 0,-0.1171875 -0.05859,-0.2578125 -0.234375,-0.28125 0.210937,-0.234375 0.65625,-0.2460938 0.761718,-0.2460938 0.363282,0 0.621094,0.1875 0.621094,0.5273438 0,0.28125 -0.1875,0.7382812 -0.714844,0.7734375 -0.140625,0 -0.152343,0 -0.28125,0.011719 -0.05859,0 -0.117187,0.011719 -0.117187,0.082031 0,0.082031 0.05859,0.082031 0.140625,0.082031 z m 0,0"
         style="fill:#000000;fill-opacity:1;fill-rule:nonzero;stroke:none" />
    </g>
    <path
       id="path27"
       d="m 1.9090625,-0.52859375 c 0,-0.29296875 -0.234375,-0.52734375 -0.5273437,-0.52734375 -0.28125,0 -0.5273438,0.234375 -0.5273438,0.52734375 0,0.29296875 0.2460938,0.52734375 0.5273438,0.52734375 0.2929687,0 0.5273437,-0.234375 0.5273437,-0.52734375 z m 4.4326172,0 c 0,-0.29296875 -0.234375,-0.52734375 -0.5273438,-0.52734375 -0.28125,0 -0.5273437,0.234375 -0.5273437,0.52734375 0,0.29296875 0.2460937,0.52734375 0.5273437,0.52734375 0.2929688,0 0.5273438,-0.234375 0.5273438,-0.52734375 z m 4.4208983,0 c 0,-0.29296875 -0.234375,-0.52734375 -0.527344,-0.52734375 -0.2812496,0 -0.5273434,0.234375 -0.5273434,0.52734375 0,0.29296875 0.2460938,0.52734375 0.5273434,0.52734375 0.292969,0 0.527344,-0.234375 0.527344,-0.52734375 z m 0,0"
       style="fill:#000000;fill-opacity:1;fill-rule:nonzero;stroke:none"
       aria-label="..."
       transform="matrix(1.3333333,0,0,1.3333333,266.67333,28.626667)" />
    <path
       id="path28"
       d="m 152.55678,0 c 0,2.06337 -1.67267,3.73604 -3.73604,3.73604 -2.06339,0 -3.73604,-1.67267 -3.73604,-3.73604 0,-2.06337 1.67265,-3.73604 3.73604,-3.73604 2.06337,0 3.73604,1.67267 3.73604,3.73604 z"
       style="fill:#32d2c0;fill-opacity:0.9;fill-rule:nonzero;stroke:#000000;stroke-width:0.3985;stroke-linecap:butt;stroke-linejoin:miter;stroke-miterlimit:10;stroke-dasharray:none;stroke-opacity:0.9"
       transform="matrix(1.3333333,0,0,-1.3333333,104.34267,27.925333)" />
    <g
       id="g28"
       aria-label="A&#10;σ&#10;n−1"
       transform="matrix(1.3333333,0,0,1.3333333,285.268,48.625333)">
      <path
         id="path29"
         d="m 1.7823984,-1.1486875 c -0.3984375,0.66796875 -0.78515621,0.80859375 -1.21874996,0.84375 -0.12890625,0 -0.2109375,0 -0.2109375,0.19921875 0,0.05859375 0.046875,0.10546875 0.12890625,0.10546875 0.26953125,0 0.57421871,-0.03515625 0.85546871,-0.03515625 0.328125,0 0.6796875,0.03515625 0.9960938,0.03515625 0.058594,0 0.1875,0 0.1875,-0.1875 0,-0.1171875 -0.09375,-0.1171875 -0.1640625,-0.1171875 C 2.1339609,-0.328375 1.8995859,-0.41040625 1.8995859,-0.6565 c 0,-0.1171875 0.058594,-0.234375 0.1289063,-0.375 l 0.7617187,-1.265625 h 2.4960938 c 0.023437,0.1992188 0.1640625,1.55859375 0.1640625,1.6640625 0,0.29296875 -0.515625,0.328125 -0.7148438,0.328125 -0.140625,0 -0.2460937,0 -0.2460937,0.19921875 0,0.10546875 0.1289062,0.10546875 0.140625,0.10546875 0.4101562,0 0.84375,-0.03515625 1.2539062,-0.03515625 0.2460938,0 0.8671875,0.03515625 1.125,0.03515625 0.058594,0 0.1757813,0 0.1757813,-0.19921875 0,-0.10546875 -0.1054688,-0.10546875 -0.234375,-0.10546875 -0.609375,0 -0.609375,-0.0703125 -0.6445313,-0.36328125 L 5.6964609,-6.890875 c -0.011719,-0.1992187 -0.011719,-0.2460937 -0.1875,-0.2460937 -0.1640625,0 -0.1992187,0.070312 -0.2578125,0.1757812 z m 1.1953125,-1.4648437 1.96875,-3.28125 0.3164063,3.28125 z m 0,0"
         style="fill:#000000;fill-opacity:1;fill-rule:nonzero;stroke:none" />
      <path
         id="path30"
         d="m 11.549977,-6.1467344 c 0.117187,0 0.1875,0 0.257812,-0.058594 0.09375,-0.070312 0.117188,-0.1757813 0.117188,-0.2226563 0,-0.1875 -0.1875,-0.1875 -0.304688,-0.1875 H 9.8390391 c -1.1132813,0 -1.9570313,1.1015625 -1.9570313,1.9335938 0,0.6445312 0.4804688,1.1367187 1.1953125,1.1367187 0.8789063,0 1.8867187,-0.796875 1.8867187,-1.8632812 0,-0.1054688 0,-0.421875 -0.210937,-0.7382813 z m -2.4726567,2.4023438 c -0.375,0 -0.6796875,-0.2460938 -0.6796875,-0.7382813 0,-0.2109375 0.1171875,-1.6640625 1.3242188,-1.6640625 0.3515624,0 0.7148434,0.1289063 0.7148434,0.6679688 0,0.1171875 -0.05859,0.75 -0.410156,1.21875 -0.2929687,0.375 -0.6796874,0.515625 -0.9492187,0.515625 z m 0,0"
         style="fill:#000000;fill-opacity:1;fill-rule:nonzero;stroke:none" />
      <path
         id="path31"
         d="m 13.061695,-3.1115781 c -0.03516,0.1289062 -0.08203,0.3515625 -0.08203,0.375 0,0.1054687 0.08203,0.1757812 0.175781,0.1757812 0.08203,0 0.1875,-0.046875 0.246094,-0.1640625 0,-0.023437 0.05859,-0.2578125 0.09375,-0.3984375 0.164063,-0.6679687 0.164063,-0.6796875 0.175781,-0.6914062 0.07031,-0.140625 0.421875,-0.8320313 1.03125,-0.8320313 0.246094,0 0.351563,0.1289063 0.351563,0.3515625 0,0.28125 -0.210938,0.796875 -0.328125,1.078125 -0.02344,0.070312 -0.04687,0.1289063 -0.04687,0.2109375 0,0.2578125 0.246094,0.4453125 0.539062,0.4453125 0.539063,0 0.808594,-0.65625 0.808594,-0.7734375 0,-0.070312 -0.08203,-0.070312 -0.105469,-0.070312 -0.08203,0 -0.08203,0.023437 -0.117187,0.1171875 -0.09375,0.2929688 -0.328125,0.5507813 -0.5625,0.5507813 -0.117188,0 -0.152344,-0.082031 -0.152344,-0.1875 0,-0.1054688 0.02344,-0.1523438 0.07031,-0.2578125 0.08203,-0.1992188 0.316406,-0.7734375 0.316406,-1.0429688 0,-0.375 -0.269531,-0.5976562 -0.738281,-0.5976562 -0.457032,0 -0.773438,0.28125 -0.949219,0.4921875 -0.02344,-0.4101563 -0.421875,-0.4921875 -0.597656,-0.4921875 -0.503907,0 -0.644532,0.7617187 -0.644532,0.7734375 0,0.070312 0.07031,0.070312 0.105469,0.070312 0.08203,0 0.09375,-0.035156 0.105469,-0.09375 0.08203,-0.2929688 0.199219,-0.5742188 0.398437,-0.5742188 0.175782,0 0.210938,0.1523438 0.210938,0.2578125 0,0.070312 -0.04687,0.2578125 -0.08203,0.3867188 -0.03516,0.140625 -0.08203,0.3398437 -0.105469,0.4570312 z m 0,0"
         style="fill:#000000;fill-opacity:1;fill-rule:nonzero;stroke:none" />
      <path
         id="path32"
         d="m 20.857594,-3.7209531 c 0.08203,0 0.210937,0 0.210937,-0.140625 0,-0.140625 -0.128906,-0.140625 -0.210937,-0.140625 h -3.375 c -0.08203,0 -0.210938,0 -0.210938,0.140625 0,0.140625 0.128907,0.140625 0.210938,0.140625 z m 0,0"
         style="fill:#000000;fill-opacity:1;fill-rule:nonzero;stroke:none" />
      <path
         id="path33"
         d="m 23.854664,-5.7834531 c 0,-0.1523438 -0.01172,-0.1523438 -0.175781,-0.1523438 -0.351563,0.3164063 -0.902344,0.3164063 -1.007813,0.3164063 h -0.08203 v 0.2226562 h 0.08203 c 0.117188,0 0.433594,-0.011719 0.726563,-0.140625 v 2.484375 c 0,0.1640625 0,0.2109375 -0.527344,0.2109375 h -0.246094 v 0.2226563 c 0.269532,-0.023437 0.714844,-0.023437 1.007813,-0.023437 0.28125,0 0.726562,0 0.996094,0.023437 v -0.2226563 h -0.246094 c -0.527344,0 -0.527344,-0.046875 -0.527344,-0.2109375 z m 0,0"
         style="fill:#000000;fill-opacity:1;fill-rule:nonzero;stroke:none" />
    </g>
    <path
       id="path34"
       d="m 195.077,0 c 0,2.06337 -1.67267,3.73604 -3.73604,3.73604 -2.06339,0 -3.73604,-1.67267 -3.73604,-3.73604 0,-2.06337 1.67265,-3.73604 3.73604,-3.73604 2.06337,0 3.73604,1.67267 3.73604,3.73604 z"
       style="fill:#32d2c0;fill-opacity:0.9;fill-rule:nonzero;stroke:#000000;stroke-width:0.3985;stroke-linecap:butt;stroke-linejoin:miter;stroke-miterlimit:10;stroke-dasharray:none;stroke-opacity:0.9"
       transform="matrix(1.3333333,0,0,-1.3333333,104.34267,27.925333)" />
    <g
       id="g34"
       aria-label="A&#10;σ&#10;n"
       transform="matrix(1.3333333,0,0,1.3333333,347.82,48.625333)">
      <path
         id="path35"
         d="m 1.7814844,-1.1486875 c -0.3984375,0.66796875 -0.78515628,0.80859375 -1.21875003,0.84375 -0.12890625,0 -0.2109375,0 -0.2109375,0.19921875 0,0.05859375 0.046875,0.10546875 0.12890625,0.10546875 0.26953125,0 0.57421878,-0.03515625 0.85546878,-0.03515625 0.328125,0 0.6796875,0.03515625 0.9960937,0.03515625 0.058594,0 0.1875,0 0.1875,-0.1875 0,-0.1171875 -0.09375,-0.1171875 -0.1640625,-0.1171875 C 2.1330469,-0.328375 1.8986719,-0.41040625 1.8986719,-0.6565 c 0,-0.1171875 0.058594,-0.234375 0.1289062,-0.375 l 0.7617188,-1.265625 h 2.4960937 c 0.023437,0.1992188 0.1640625,1.55859375 0.1640625,1.6640625 0,0.29296875 -0.515625,0.328125 -0.7148437,0.328125 -0.140625,0 -0.2460938,0 -0.2460938,0.19921875 0,0.10546875 0.1289063,0.10546875 0.140625,0.10546875 0.4101563,0 0.84375,-0.03515625 1.2539063,-0.03515625 0.2460937,0 0.8671875,0.03515625 1.125,0.03515625 0.058594,0 0.1757812,0 0.1757812,-0.19921875 0,-0.10546875 -0.1054687,-0.10546875 -0.234375,-0.10546875 -0.609375,0 -0.609375,-0.0703125 -0.6445312,-0.36328125 L 5.6955469,-6.890875 c -0.011719,-0.1992187 -0.011719,-0.2460937 -0.1875,-0.2460937 -0.1640625,0 -0.1992188,0.070312 -0.2578125,0.1757812 z m 1.1953125,-1.4648437 1.96875,-3.28125 0.3164062,3.28125 z m 0,0"
         style="fill:#000000;fill-opacity:1;fill-rule:nonzero;stroke:none" />
      <path
         id="path36"
         d="m 11.549062,-6.1467344 c 0.117188,0 0.1875,0 0.257813,-0.058594 0.09375,-0.070312 0.117187,-0.1757813 0.117187,-0.2226563 0,-0.1875 -0.1875,-0.1875 -0.304687,-0.1875 h -1.78125 c -1.1132813,0 -1.9570313,1.1015625 -1.9570313,1.9335938 0,0.6445312 0.4804688,1.1367187 1.1953125,1.1367187 0.8789063,0 1.8867188,-0.796875 1.8867188,-1.8632812 0,-0.1054688 0,-0.421875 -0.210938,-0.7382813 z m -2.4726558,2.4023438 c -0.375,0 -0.6796875,-0.2460938 -0.6796875,-0.7382813 0,-0.2109375 0.1171875,-1.6640625 1.3242188,-1.6640625 0.3515625,0 0.7148435,0.1289063 0.7148435,0.6679688 0,0.1171875 -0.05859,0.75 -0.410156,1.21875 -0.2929688,0.375 -0.6796875,0.515625 -0.9492188,0.515625 z m 0,0"
         style="fill:#000000;fill-opacity:1;fill-rule:nonzero;stroke:none" />
      <path
         id="path37"
         d="m 13.060781,-3.1115781 c -0.03516,0.1289062 -0.08203,0.3515625 -0.08203,0.375 0,0.1054687 0.08203,0.1757812 0.175781,0.1757812 0.08203,0 0.1875,-0.046875 0.246094,-0.1640625 0,-0.023437 0.05859,-0.2578125 0.09375,-0.3984375 0.164062,-0.6679687 0.164062,-0.6796875 0.175781,-0.6914062 0.07031,-0.140625 0.421875,-0.8320313 1.03125,-0.8320313 0.246094,0 0.351563,0.1289063 0.351563,0.3515625 0,0.28125 -0.210938,0.796875 -0.328125,1.078125 -0.02344,0.070312 -0.04687,0.1289063 -0.04687,0.2109375 0,0.2578125 0.246093,0.4453125 0.539062,0.4453125 0.539063,0 0.808594,-0.65625 0.808594,-0.7734375 0,-0.070312 -0.08203,-0.070312 -0.105469,-0.070312 -0.08203,0 -0.08203,0.023437 -0.117187,0.1171875 -0.09375,0.2929688 -0.328125,0.5507813 -0.5625,0.5507813 -0.117188,0 -0.152344,-0.082031 -0.152344,-0.1875 0,-0.1054688 0.02344,-0.1523438 0.07031,-0.2578125 0.08203,-0.1992188 0.316407,-0.7734375 0.316407,-1.0429688 0,-0.375 -0.269532,-0.5976562 -0.738282,-0.5976562 -0.457031,0 -0.773437,0.28125 -0.949218,0.4921875 -0.02344,-0.4101563 -0.421875,-0.4921875 -0.597657,-0.4921875 -0.503906,0 -0.644531,0.7617187 -0.644531,0.7734375 0,0.070312 0.07031,0.070312 0.105469,0.070312 0.08203,0 0.09375,-0.035156 0.105469,-0.09375 0.08203,-0.2929688 0.199218,-0.5742188 0.398437,-0.5742188 0.175781,0 0.210938,0.1523438 0.210938,0.2578125 0,0.070312 -0.04687,0.2578125 -0.08203,0.3867188 -0.03516,0.140625 -0.08203,0.3398437 -0.105468,0.4570312 z m 0,0"
         style="fill:#000000;fill-opacity:1;fill-rule:nonzero;stroke:none" />
    </g>
    <path
       id="path38"
       d="m 21.26073,3.73604 v 7.08668"
       style="fill:none;stroke:#000000;stroke-width:0.3985;stroke-linecap:butt;stroke-linejoin:miter;stroke-miterlimit:10;stroke-dasharray:none;stroke-opacity:1"
       transform="matrix(1.3333333,0,0,-1.3333333,104.34267,27.925333)" />
    <g
       id="g38"
       aria-label="σ&#10;1"
       transform="matrix(1.3333333,0,0,1.3333333,125.916,6.8533333)">
      <path
         id="path39"
         d="m 5.1547969,-3.7161719 c 0.1289062,0 0.4921875,0 0.4921875,-0.3398437 0,-0.234375 -0.2109375,-0.234375 -0.3867188,-0.234375 H 2.9868281 c -1.5,0 -2.61328122,1.640625 -2.61328122,2.8242187 0,0.87890628 0.5859375,1.57031253 1.50000002,1.57031253 1.171875,0 2.4960937,-1.20703123 2.4960937,-2.73046873 0,-0.1757813 0,-0.65625 -0.3046875,-1.0898438 z m -3.2695313,3.60937503 c -0.4921875,0 -0.89062497,-0.36328125 -0.89062497,-1.07812503 0,-0.3046875 0.11718747,-1.1132812 0.46874997,-1.7109375 0.421875,-0.6796875 1.0195313,-0.8203125 1.359375,-0.8203125 0.8320313,0 0.9140625,0.65625 0.9140625,0.9609375 0,0.46875 -0.1992187,1.2890625 -0.5390625,1.79296878 -0.3867187,0.59765625 -0.9257812,0.85546875 -1.3125,0.85546875 z m 0,0"
         style="fill:#000000;fill-opacity:1;fill-rule:nonzero;stroke:none" />
      <path
         id="path40"
         d="m 8.0258906,-2.936875 c 0,-0.1875 -0.011719,-0.1992187 -0.2109375,-0.1992187 -0.4453125,0.4335937 -1.078125,0.4453125 -1.359375,0.4453125 v 0.2460937 c 0.1640625,0 0.6210938,0 1.0078125,-0.1875 v 3.55078125 c 0,0.23437505 0,0.32812505 -0.6914062,0.32812505 H 6.5024531 v 0.2460937 c 0.1289063,-0.011719 0.984375,-0.023437 1.2421875,-0.023437 0.2109375,0 1.0898438,0.011719 1.2421875,0.023437 V 1.2467188 H 8.7290156 c -0.703125,0 -0.703125,-0.09375 -0.703125,-0.32812505 z m 0,0"
         style="fill:#000000;fill-opacity:1;fill-rule:nonzero;stroke:none" />
    </g>
    <path
       id="path41"
       d="m 63.78223,3.73604 v 7.08668"
       style="fill:none;stroke:#000000;stroke-width:0.3985;stroke-linecap:butt;stroke-linejoin:miter;stroke-miterlimit:10;stroke-dasharray:none;stroke-opacity:1"
       transform="matrix(1.3333333,0,0,-1.3333333,104.34267,27.925333)" />
    <g
       id="g41"
       aria-label="σ&#10;2"
       transform="matrix(1.3333333,0,0,1.3333333,182.61067,6.8533333)">
      <path
         id="path42"
         d="m 5.1552813,-3.7161719 c 0.1289062,0 0.4921875,0 0.4921875,-0.3398437 0,-0.234375 -0.2109375,-0.234375 -0.3867188,-0.234375 H 2.9873125 c -1.5,0 -2.61328125,1.640625 -2.61328125,2.8242187 0,0.87890628 0.5859375,1.57031253 1.50000005,1.57031253 1.171875,0 2.4960937,-1.20703123 2.4960937,-2.73046873 0,-0.1757813 0,-0.65625 -0.3046875,-1.0898438 z M 1.88575,-0.10679687 c -0.4921875,0 -0.890625,-0.36328125 -0.890625,-1.07812503 0,-0.3046875 0.1171875,-1.1132812 0.46875,-1.7109375 0.421875,-0.6796875 1.0195313,-0.8203125 1.359375,-0.8203125 0.8320313,0 0.9140625,0.65625 0.9140625,0.9609375 0,0.46875 -0.1992187,1.2890625 -0.5390625,1.79296878 -0.3867187,0.59765625 -0.9257812,0.85546875 -1.3125,0.85546875 z m 0,0"
         style="fill:#000000;fill-opacity:1;fill-rule:nonzero;stroke:none" />
      <path
         id="path43"
         d="M 9.2070391,0.2271875 H 8.9726641 C 8.9492266,0.37953125 8.8906328,0.7896875 8.7968828,0.86 8.7382891,0.89515625 8.1992266,0.89515625 8.1054766,0.89515625 H 6.8164141 c 0.7382812,-0.64453125 0.984375,-0.84375 1.3945312,-1.171875 0.515625,-0.41015625 0.9960938,-0.84374995 0.9960938,-1.49999995 0,-0.84375 -0.7382813,-1.359375 -1.6289063,-1.359375 -0.8671875,0 -1.453125,0.609375 -1.453125,1.2421875 0,0.3632812 0.3046875,0.3984375 0.375,0.3984375 0.1640625,0 0.375,-0.1171875 0.375,-0.375 0,-0.1289063 -0.058594,-0.3632813 -0.421875,-0.3632813 C 6.6757891,-2.7376562 7.1445391,-2.89 7.4726641,-2.89 c 0.703125,0 1.0664062,0.5507813 1.0664062,1.1132813 0,0.609375 -0.4335937,1.0898437 -0.65625,1.33593745 l -1.6875,1.66406255 c -0.070312,0.058594 -0.070312,0.070312 -0.070312,0.2695312 h 2.8828125 z m 0,0"
         style="fill:#000000;fill-opacity:1;fill-rule:nonzero;stroke:none" />
    </g>
    <path
       id="path44"
       d="m 106.30376,3.73604 v 7.08668"
       style="fill:none;stroke:#000000;stroke-width:0.3985;stroke-linecap:butt;stroke-linejoin:miter;stroke-miterlimit:10;stroke-dasharray:none;stroke-opacity:1"
       transform="matrix(1.3333333,0,0,-1.3333333,104.34267,27.925333)" />
    <g
       id="g44"
       aria-label="σ&#10;3"
       transform="matrix(1.3333333,0,0,1.3333333,239.30533,6.8533333)">
      <path
         id="path45"
         d="m 5.1557656,-3.7161719 c 0.1289063,0 0.4921875,0 0.4921875,-0.3398437 0,-0.234375 -0.2109375,-0.234375 -0.3867187,-0.234375 H 2.9877969 c -1.5,0 -2.61328127,1.640625 -2.61328127,2.8242187 0,0.87890628 0.5859375,1.57031253 1.49999997,1.57031253 1.171875,0 2.4960938,-1.20703123 2.4960938,-2.73046873 0,-0.1757813 0,-0.65625 -0.3046875,-1.0898438 z m -3.2695312,3.60937503 c -0.4921875,0 -0.89062502,-0.36328125 -0.89062502,-1.07812503 0,-0.3046875 0.11718752,-1.1132812 0.46875002,-1.7109375 0.421875,-0.6796875 1.0195312,-0.8203125 1.359375,-0.8203125 0.8320312,0 0.9140625,0.65625 0.9140625,0.9609375 0,0.46875 -0.1992188,1.2890625 -0.5390625,1.79296878 -0.3867188,0.59765625 -0.9257813,0.85546875 -1.3125,0.85546875 z m 0,0"
         style="fill:#000000;fill-opacity:1;fill-rule:nonzero;stroke:none" />
      <path
         id="path46"
         d="m 7.5903359,-0.83921875 c 0.5507813,0 0.9375,0.375 0.9375,1.125 0,0.86718755 -0.5039062,1.12500005 -0.9023437,1.12500005 -0.28125,0 -0.890625,-0.082031 -1.1835938,-0.49218755 C 6.7700234,0.906875 6.8403359,0.6725 6.8403359,0.531875 c 0,-0.22265625 -0.1640625,-0.38671875 -0.3867187,-0.38671875 -0.1875,0 -0.3867188,0.1171875 -0.3867188,0.41015625 0,0.65625 0.7265625,1.078125 1.5703125,1.078125 0.9726563,0 1.640625,-0.64453125 1.640625,-1.34765625 0,-0.5390625 -0.4453125,-1.08984375 -1.21875,-1.2421875 0.7382813,-0.26953125 0.9960938,-0.79687495 0.9960938,-1.21874995 0,-0.5507813 -0.6328125,-0.9609375 -1.40625,-0.9609375 -0.7734375,0 -1.359375,0.375 -1.359375,0.9375 0,0.234375 0.1523437,0.3632812 0.3632812,0.3632812 0.2109375,0 0.3515625,-0.1640625 0.3515625,-0.3515625 0,-0.1992187 -0.140625,-0.3515625 -0.3515625,-0.3632812 0.234375,-0.3046875 0.7148438,-0.3867188 0.9726563,-0.3867188 0.3164062,0 0.7617187,0.1523438 0.7617187,0.7617188 0,0.2929687 -0.1054687,0.609375 -0.28125,0.8320312 -0.234375,0.2578125 -0.421875,0.28125 -0.7734375,0.2929688 -0.1757812,0.023437 -0.1875,0.023437 -0.2226562,0.023437 -0.011719,0 -0.070312,0.011719 -0.070312,0.0937499 0,0.09375 0.058594,0.09375 0.1757812,0.09375 z m 0,0"
         style="fill:#000000;fill-opacity:1;fill-rule:nonzero;stroke:none" />
    </g>
    <path
       id="path47"
       d="m 148.82526,3.73604 v 7.08668"
       style="fill:none;stroke:#000000;stroke-width:0.3985;stroke-linecap:butt;stroke-linejoin:miter;stroke-miterlimit:10;stroke-dasharray:none;stroke-opacity:1"
       transform="matrix(1.3333333,0,0,-1.3333333,104.34267,27.925333)" />
    <g
       id="g47"
       aria-label="σ&#10;n−1"
       transform="matrix(1.3333333,0,0,1.3333333,288.56533,6.8533333)">
      <path
         id="path48"
         d="m 5.1570547,-3.7161719 c 0.1289062,0 0.4921875,0 0.4921875,-0.3398437 0,-0.234375 -0.2109375,-0.234375 -0.3867188,-0.234375 H 2.9890859 c -1.5,0 -2.61328121,1.640625 -2.61328121,2.8242187 0,0.87890628 0.5859375,1.57031253 1.50000001,1.57031253 1.171875,0 2.4960937,-1.20703123 2.4960937,-2.73046873 0,-0.1757813 0,-0.65625 -0.3046875,-1.0898438 z m -3.2695313,3.60937503 c -0.4921875,0 -0.89062496,-0.36328125 -0.89062496,-1.07812503 0,-0.3046875 0.11718746,-1.1132812 0.46874996,-1.7109375 0.421875,-0.6796875 1.0195313,-0.8203125 1.359375,-0.8203125 0.8320313,0 0.9140625,0.65625 0.9140625,0.9609375 0,0.46875 -0.1992187,1.2890625 -0.5390625,1.79296878 -0.3867187,0.59765625 -0.9257812,0.85546875 -1.3125,0.85546875 z m 0,0"
         style="fill:#000000;fill-opacity:1;fill-rule:nonzero;stroke:none" />
      <path
         id="path49"
         d="m 6.5486562,1.0592188 c -0.035156,0.082031 -0.070312,0.2578125 -0.070312,0.28125 0,0.1523437 0.1171875,0.2226562 0.234375,0.2226562 0.1289063,0 0.234375,-0.09375 0.2695313,-0.1523437 C 7.0174062,1.3521875 7.076,1.1178125 7.1111562,0.9771875 7.1463125,0.84828125 7.216625,0.52015625 7.2635,0.344375 7.2986562,0.19203125 7.3455312,0.0396875 7.3806875,-0.11265625 7.4627187,-0.405625 7.4744375,-0.46421875 7.6736562,-0.74546875 7.872875,-1.0267187 8.201,-1.39 8.716625,-1.39 c 0.4101562,0 0.4101562,0.3632813 0.4101562,0.4921875 0,0.421875 -0.2929687,1.1953125 -0.4101562,1.48828125 -0.070312,0.1875 -0.1054688,0.2578125 -0.1054688,0.375 0,0.36328125 0.3046875,0.59765625 0.6679688,0.59765625 0.6914062,0 1.007812,-0.9609375 1.007812,-1.06640625 0,-0.09375 -0.09375,-0.09375 -0.117187,-0.09375 -0.09375,0 -0.105469,0.046875 -0.128906,0.1171875 C 9.8767812,1.0826563 9.5720937,1.3639063 9.3025625,1.3639063 c -0.1523438,0 -0.1757813,-0.09375 -0.1757813,-0.2460938 0,-0.15234375 0.035156,-0.24609375 0.1523438,-0.5625 0.09375,-0.2109375 0.375,-0.94921875 0.375,-1.34765625 0,-0.66796875 -0.5390625,-0.78515625 -0.9023438,-0.78515625 -0.5859375,0 -0.9726562,0.3515625 -1.1835937,0.6328125 -0.046875,-0.4804687 -0.4570313,-0.6328125 -0.75,-0.6328125 -0.2929688,0 -0.4570313,0.2109375 -0.5507813,0.375 -0.1523437,0.2578125 -0.2460937,0.65625 -0.2460937,0.69140625 0,0.0820313 0.09375,0.0820313 0.1171875,0.0820313 0.09375,0 0.1054687,-0.0117188 0.1523437,-0.19921875 C 6.3963125,-1.0501562 6.5252187,-1.39 6.8064687,-1.39 c 0.1757813,0 0.2226563,0.1523438 0.2226563,0.3398438 0,0.14062495 -0.058594,0.39843745 -0.1054688,0.58593745 -0.046875,0.1875 -0.1171875,0.46875 -0.1523437,0.62109375 z m 0,0"
         style="fill:#000000;fill-opacity:1;fill-rule:nonzero;stroke:none" />
      <path
         id="path50"
         d="m 15.809398,-0.0775 c 0.105469,0 0.269532,0 0.269532,-0.17578125 0,-0.17578125 -0.152344,-0.17578125 -0.269532,-0.17578125 h -4.160156 c -0.105469,0 -0.28125,0 -0.28125,0.17578125 0,0.17578125 0.164063,0.17578125 0.28125,0.17578125 z m 0,0"
         style="fill:#000000;fill-opacity:1;fill-rule:nonzero;stroke:none" />
      <path
         id="path51"
         d="m 19.175609,-2.936875 c 0,-0.1875 -0.01172,-0.1992187 -0.210937,-0.1992187 -0.445313,0.4335937 -1.078125,0.4453125 -1.359375,0.4453125 v 0.2460937 c 0.164062,0 0.621094,0 1.007812,-0.1875 v 3.55078125 c 0,0.23437505 0,0.32812505 -0.691406,0.32812505 h -0.269531 v 0.2460937 c 0.128906,-0.011719 0.984375,-0.023437 1.242187,-0.023437 0.210938,0 1.089844,0.011719 1.242188,0.023437 V 1.2467188 h -0.257813 c -0.703125,0 -0.703125,-0.09375 -0.703125,-0.32812505 z m 0,0"
         style="fill:#000000;fill-opacity:1;fill-rule:nonzero;stroke:none" />
    </g>
    <path
       id="path52"
       d="m 191.34677,3.73604 v 7.08668"
       style="fill:none;stroke:#000000;stroke-width:0.3985;stroke-linecap:butt;stroke-linejoin:miter;stroke-miterlimit:10;stroke-dasharray:none;stroke-opacity:1"
       transform="matrix(1.3333333,0,0,-1.3333333,104.34267,27.925333)" />
    <g
       id="g52"
       aria-label="σ&#10;n"
       transform="matrix(1.3333333,0,0,1.3333333,352.05867,6.8533333)">
      <path
         id="path53"
         d="m 5.1561953,-3.7161719 c 0.1289063,0 0.4921875,0 0.4921875,-0.3398437 0,-0.234375 -0.2109375,-0.234375 -0.3867187,-0.234375 H 2.9882266 c -1.5,0 -2.61328129,1.640625 -2.61328129,2.8242187 0,0.87890628 0.5859375,1.57031253 1.49999999,1.57031253 1.171875,0 2.4960938,-1.20703123 2.4960938,-2.73046873 0,-0.1757813 0,-0.65625 -0.3046875,-1.0898438 z m -3.2695312,3.60937503 c -0.4921875,0 -0.89062504,-0.36328125 -0.89062504,-1.07812503 0,-0.3046875 0.11718754,-1.1132812 0.46875004,-1.7109375 0.421875,-0.6796875 1.0195312,-0.8203125 1.359375,-0.8203125 0.8320312,0 0.9140625,0.65625 0.9140625,0.9609375 0,0.46875 -0.1992188,1.2890625 -0.5390625,1.79296878 -0.3867188,0.59765625 -0.9257813,0.85546875 -1.3125,0.85546875 z m 0,0"
         style="fill:#000000;fill-opacity:1;fill-rule:nonzero;stroke:none" />
      <path
         id="path54"
         d="m 6.5477969,1.0592188 c -0.035156,0.082031 -0.070312,0.2578125 -0.070312,0.28125 0,0.1523437 0.1171875,0.2226562 0.234375,0.2226562 0.1289062,0 0.234375,-0.09375 0.2695312,-0.1523437 0.035156,-0.058594 0.09375,-0.2929688 0.1289063,-0.4335938 C 7.1454531,0.84828125 7.2157656,0.52015625 7.2626406,0.344375 7.2977969,0.19203125 7.3446719,0.0396875 7.3798281,-0.11265625 7.4618594,-0.405625 7.4735781,-0.46421875 7.6727969,-0.74546875 7.8720156,-1.0267187 8.2001406,-1.39 8.7157656,-1.39 c 0.4101563,0 0.4101563,0.3632813 0.4101563,0.4921875 0,0.421875 -0.2929688,1.1953125 -0.4101563,1.48828125 -0.070312,0.1875 -0.1054687,0.2578125 -0.1054687,0.375 0,0.36328125 0.3046875,0.59765625 0.6679687,0.59765625 0.6914063,0 1.0078124,-0.9609375 1.0078124,-1.06640625 0,-0.09375 -0.09375,-0.09375 -0.117187,-0.09375 -0.09375,0 -0.105469,0.046875 -0.128907,0.1171875 C 9.8759219,1.0826563 9.5712344,1.3639063 9.3017031,1.3639063 c -0.1523437,0 -0.1757812,-0.09375 -0.1757812,-0.2460938 0,-0.15234375 0.035156,-0.24609375 0.1523437,-0.5625 0.09375,-0.2109375 0.375,-0.94921875 0.375,-1.34765625 0,-0.66796875 -0.5390625,-0.78515625 -0.9023437,-0.78515625 -0.5859375,0 -0.9726563,0.3515625 -1.1835938,0.6328125 -0.046875,-0.4804687 -0.4570312,-0.6328125 -0.75,-0.6328125 -0.2929687,0 -0.4570312,0.2109375 -0.5507812,0.375 -0.1523438,0.2578125 -0.2460938,0.65625 -0.2460938,0.69140625 0,0.0820313 0.09375,0.0820313 0.1171875,0.0820313 0.09375,0 0.1054688,-0.0117188 0.1523438,-0.19921875 C 6.3954531,-1.0501562 6.5243594,-1.39 6.8056094,-1.39 c 0.1757812,0 0.2226562,0.1523438 0.2226562,0.3398438 0,0.14062495 -0.058594,0.39843745 -0.1054687,0.58593745 -0.046875,0.1875 -0.1171875,0.46875 -0.1523438,0.62109375 z m 0,0"
         style="fill:#000000;fill-opacity:1;fill-rule:nonzero;stroke:none" />
    </g>
    <path
       id="path55"
       d="M 24.99687,0 H 60.04608"
       style="fill:none;stroke:#000000;stroke-width:0.3985;stroke-linecap:butt;stroke-linejoin:miter;stroke-miterlimit:10;stroke-dasharray:none;stroke-opacity:1"
       transform="matrix(1.3333333,0,0,-1.3333333,104.34267,27.925333)" />
    <path
       id="path56"
       d="M 36.49536,-2.92654 H 48.54501 V 2.92655 H 36.49536 Z"
       style="fill:#ffffff;fill-opacity:1;fill-rule:nonzero;stroke:none"
       transform="matrix(1.3333333,0,0,-1.3333333,104.34267,27.925333)" />
    <g
       id="g56"
       aria-label="α&#10;1"
       transform="matrix(1.3333333,0,0,1.3333333,154.332,30.498667)">
      <path
         id="path57"
         d="m 4.4062734,-2.108375 c 0,-1.3359375 -0.8085937,-1.8515625 -1.5703125,-1.8515625 -1.21875,0 -2.44921871,1.2304688 -2.44921871,2.53125 0,0.9140625 0.62109371,1.5234375 1.50000001,1.5234375 0.9609375,0 1.6992187,-0.57421875 1.9335937,-0.75 0.1171875,0.4453125 0.4101563,0.75 0.8554688,0.75 0.4804687,0 0.7734375,-0.46875 0.7734375,-0.6328125 0,-0.09375 -0.09375,-0.09375 -0.1289063,-0.09375 -0.09375,0 -0.1054687,0.0351563 -0.1289062,0.1171875 -0.09375,0.2578125 -0.328125,0.38671875 -0.4921875,0.38671875 -0.2929688,0 -0.2929688,-0.796875 -0.2929688,-0.97265625 0,-0.1171875 0,-0.140625 0.082031,-0.234375 0.1523437,-0.1875 0.3984375,-0.5039062 0.6328125,-0.9609375 0.2695312,-0.5273437 0.4101562,-1.078125 0.4101562,-1.125 0,-0.011719 0,-0.1054687 -0.1171875,-0.1054687 -0.1054687,0 -0.1054687,0.035156 -0.1523437,0.1757812 -0.09375,0.3164063 -0.2929688,0.9960938 -0.8554688,1.7460938 z m -0.6328125,1.1953125 c -0.2226562,0.1875 -0.9492187,0.78515625 -1.8632812,0.78515625 -0.5039063,0 -0.8320313,-0.328125 -0.8320313,-0.97265625 0,-0.3867187 0.1640625,-1.2773437 0.5273438,-1.8515625 0.234375,-0.3632812 0.703125,-0.7851562 1.2304687,-0.7851562 0.5976563,0 0.796875,0.5390625 0.8789063,1.078125 0.070312,0.4804687 0.011719,1.3476562 0.058594,1.7460937 z m 0,0"
         style="fill:#000000;fill-opacity:1;fill-rule:nonzero;stroke:none" />
      <path
         id="path58"
         d="m 8.0508047,-2.7997812 c 0,-0.1757813 -0.023437,-0.1757813 -0.1992188,-0.1757813 -0.3984375,0.375 -1.0078125,0.375 -1.21875,0.375 v 0.234375 c 0.1523438,0 0.5507813,0 0.9023438,-0.1640625 v 3.0234375 c 0,0.1875 0,0.26953125 -0.609375,0.26953125 H 6.6679922 v 0.234375 c 0.328125,-0.0234375 0.796875,-0.0234375 1.125,-0.0234375 0.3398437,0 0.796875,0 1.1367187,0.0234375 v -0.234375 H 8.6718984 c -0.6210937,0 -0.6210937,-0.0820313 -0.6210937,-0.26953125 z m 0,0"
         style="fill:#000000;fill-opacity:1;fill-rule:nonzero;stroke:none" />
    </g>
    <path
       id="path59"
       d="M 67.51839,0 H 102.5676"
       style="fill:none;stroke:#000000;stroke-width:0.3985;stroke-linecap:butt;stroke-linejoin:miter;stroke-miterlimit:10;stroke-dasharray:none;stroke-opacity:1"
       transform="matrix(1.3333333,0,0,-1.3333333,104.34267,27.925333)" />
    <path
       id="path60"
       d="M 79.0156,-2.92654 H 91.06525 V 2.92655 H 79.0156 Z"
       style="fill:#ffffff;fill-opacity:1;fill-rule:nonzero;stroke:none"
       transform="matrix(1.3333333,0,0,-1.3333333,104.34267,27.925333)" />
    <g
       id="g60"
       aria-label="α&#10;2"
       transform="matrix(1.3333333,0,0,1.3333333,211.024,30.498667)">
      <path
         id="path61"
         d="m 4.4058281,-2.108375 c 0,-1.3359375 -0.8085937,-1.8515625 -1.5703125,-1.8515625 -1.21875,0 -2.44921873,1.2304688 -2.44921873,2.53125 0,0.9140625 0.62109373,1.5234375 1.50000003,1.5234375 0.9609375,0 1.6992187,-0.57421875 1.9335937,-0.75 0.1171875,0.4453125 0.4101563,0.75 0.8554688,0.75 0.4804687,0 0.7734375,-0.46875 0.7734375,-0.6328125 0,-0.09375 -0.09375,-0.09375 -0.1289063,-0.09375 -0.09375,0 -0.1054687,0.0351563 -0.1289062,0.1171875 -0.09375,0.2578125 -0.328125,0.38671875 -0.4921875,0.38671875 -0.2929688,0 -0.2929688,-0.796875 -0.2929688,-0.97265625 0,-0.1171875 0,-0.140625 0.082031,-0.234375 0.1523437,-0.1875 0.3984375,-0.5039062 0.6328125,-0.9609375 0.2695312,-0.5273437 0.4101562,-1.078125 0.4101562,-1.125 0,-0.011719 0,-0.1054687 -0.1171875,-0.1054687 -0.1054687,0 -0.1054687,0.035156 -0.1523437,0.1757812 -0.09375,0.3164063 -0.2929688,0.9960938 -0.8554688,1.7460938 z m -0.6328125,1.1953125 c -0.2226562,0.1875 -0.9492187,0.78515625 -1.8632812,0.78515625 -0.5039063,0 -0.8320313,-0.328125 -0.8320313,-0.97265625 0,-0.3867187 0.1640625,-1.2773437 0.5273438,-1.8515625 0.234375,-0.3632812 0.703125,-0.7851562 1.2304687,-0.7851562 0.5976563,0 0.796875,0.5390625 0.8789063,1.078125 0.070312,0.4804687 0.011719,1.3476562 0.058594,1.7460937 z m 0,0"
         style="fill:#000000;fill-opacity:1;fill-rule:nonzero;stroke:none" />
      <path
         id="path62"
         d="M 9.1167656,-0.1161875 H 8.9058281 c -0.023437,0.08203125 -0.082031,0.46875 -0.1640625,0.5390625 -0.046875,0.0351563 -0.5273437,0.0351563 -0.609375,0.0351563 h -1.125 L 7.7808281,-0.1630625 C 7.9800469,-0.327125 8.5073906,-0.702125 8.6948906,-0.889625 c 0.1757813,-0.1757812 0.421875,-0.4804687 0.421875,-0.9023437 0,-0.75 -0.6679687,-1.1835938 -1.4765625,-1.1835938 -0.7617187,0 -1.3007812,0.5039063 -1.3007812,1.0664063 0,0.3046875 0.2578125,0.3398437 0.3164062,0.3398437 0.1523438,0 0.328125,-0.1054687 0.328125,-0.3164062 0,-0.140625 -0.082031,-0.328125 -0.3398437,-0.328125 0.1289062,-0.3046875 0.5039062,-0.5273438 0.9140625,-0.5273438 0.6210937,0 0.9609375,0.46875 0.9609375,0.9492188 0,0.421875 -0.28125,0.8554687 -0.703125,1.24218745 L 6.3980156,0.751 c -0.058594,0.0585938 -0.058594,0.0585938 -0.058594,0.24609375 h 2.6015625 z m 0,0"
         style="fill:#000000;fill-opacity:1;fill-rule:nonzero;stroke:none" />
    </g>
    <path
       id="path63"
       d="m 110.0399,0 h 9.72023 m 15.60875,0 h 9.72023 m 7.47231,0 h 35.04921"
       style="fill:none;stroke:#000000;stroke-width:0.3985;stroke-linecap:butt;stroke-linejoin:miter;stroke-miterlimit:10;stroke-dasharray:none;stroke-opacity:1"
       transform="matrix(1.3333333,0,0,-1.3333333,104.34267,27.925333)" />
    <path
       id="path64"
       d="m 158.8775,-2.92654 h 22.40671 V 2.92655 H 158.8775 Z"
       style="fill:#ffffff;fill-opacity:1;fill-rule:nonzero;stroke:none"
       transform="matrix(1.3333333,0,0,-1.3333333,104.34267,27.925333)" />
    <g
       id="g64"
       aria-label="α&#10;n−1"
       transform="matrix(1.3333333,0,0,1.3333333,317.50533,30.498667)">
      <path
         id="path65"
         d="m 4.4051797,-2.108375 c 0,-1.3359375 -0.8085938,-1.8515625 -1.5703125,-1.8515625 -1.21875,0 -2.44921876,1.2304688 -2.44921876,2.53125 0,0.9140625 0.62109376,1.5234375 1.49999996,1.5234375 0.9609375,0 1.6992188,-0.57421875 1.9335938,-0.75 0.1171875,0.4453125 0.4101562,0.75 0.8554687,0.75 0.4804688,0 0.7734375,-0.46875 0.7734375,-0.6328125 0,-0.09375 -0.09375,-0.09375 -0.1289062,-0.09375 -0.09375,0 -0.1054688,0.0351563 -0.1289063,0.1171875 -0.09375,0.2578125 -0.328125,0.38671875 -0.4921875,0.38671875 -0.2929687,0 -0.2929687,-0.796875 -0.2929687,-0.97265625 0,-0.1171875 0,-0.140625 0.082031,-0.234375 0.1523438,-0.1875 0.3984375,-0.5039062 0.6328125,-0.9609375 0.2695313,-0.5273437 0.4101563,-1.078125 0.4101563,-1.125 0,-0.011719 0,-0.1054687 -0.1171875,-0.1054687 -0.1054688,0 -0.1054688,0.035156 -0.1523438,0.1757812 -0.09375,0.3164063 -0.2929687,0.9960938 -0.8554687,1.7460938 z m -0.6328125,1.1953125 c -0.2226563,0.1875 -0.9492188,0.78515625 -1.8632813,0.78515625 -0.5039062,0 -0.8320312,-0.328125 -0.8320312,-0.97265625 0,-0.3867187 0.1640625,-1.2773437 0.5273437,-1.8515625 0.234375,-0.3632812 0.703125,-0.7851562 1.2304688,-0.7851562 0.5976562,0 0.796875,0.5390625 0.8789062,1.078125 0.070312,0.4804687 0.011719,1.3476562 0.058594,1.7460937 z m 0,0"
         style="fill:#000000;fill-opacity:1;fill-rule:nonzero;stroke:none" />
      <path
         id="path66"
         d="M 7.6512734,-1.0654062 C 7.6278359,-1.5224375 7.2059609,-1.639625 6.9833047,-1.639625 c -0.234375,0 -0.3867188,0.140625 -0.4921875,0.328125 -0.1523438,0.2460938 -0.2226563,0.5625 -0.2226563,0.5859375 0,0.0703125 0.058594,0.09375 0.1054688,0.09375 0.09375,0 0.1054687,-0.046875 0.140625,-0.140625 0.1171875,-0.4804687 0.2578125,-0.6679687 0.4453125,-0.6679687 0.2226562,0 0.2226562,0.2460937 0.2226562,0.3046875 0,0.09375 -0.058594,0.32812495 -0.1054687,0.5039062 C 7.0301797,-0.46775 6.9715859,-0.233375 6.9481484,-0.09275 6.9012734,0.047875 6.8661172,0.2119375 6.8309609,0.3525625 c -0.046875,0.17578125 -0.1171875,0.46875 -0.1171875,0.50390625 0,0.12890625 0.1054688,0.19921875 0.2109375,0.19921875 0.1054688,0 0.2109375,-0.0703125 0.2578125,-0.1640625 0.011719,-0.0351563 0.058594,-0.24609375 0.09375,-0.36328125 l 0.1289063,-0.5390625 c 0.046875,-0.15234375 0.070312,-0.2578125 0.1054687,-0.3984375 0.046875,-0.19921875 0.2578125,-0.515625 0.4804688,-0.73828125 0.1171875,-0.1171875 0.375,-0.2929687 0.703125,-0.2929687 0.375,0 0.375,0.3046875 0.375,0.421875 0,0.35156245 -0.2578125,0.98437495 -0.3632813,1.2539062 -0.035156,0.10546875 -0.070312,0.19921875 -0.070312,0.3046875 0,0.3046875 0.2695313,0.515625 0.5976563,0.515625 0.609375,0 0.9023438,-0.78515625 0.9023438,-0.9140625 0,-0.0117188 0,-0.09375 -0.117187,-0.09375 -0.082031,0 -0.082031,0.03515625 -0.1171881,0.15234375 -0.09375,0.31640625 -0.3398437,0.65625 -0.6445312,0.65625 -0.1171875,0 -0.1640625,-0.0820313 -0.1640625,-0.2109375 0,-0.1171875 0.035156,-0.22265625 0.09375,-0.3515625 0.09375,-0.234375 0.3632812,-0.90234375 0.3632812,-1.2421875 0,-0.49218745 -0.375,-0.69140625 -0.8320312,-0.69140625 -0.2929688,0 -0.6796875,0.09375 -1.0664068,0.5742188 z m 0,0"
         style="fill:#000000;fill-opacity:1;fill-rule:nonzero;stroke:none" />
      <path
         id="path67"
         d="m 15.265531,-0.33884375 c 0.09375,0 0.246094,0 0.246094,-0.15234375 0,-0.1640625 -0.152344,-0.1640625 -0.246094,-0.1640625 h -3.761719 c -0.105468,0 -0.246093,0 -0.246093,0.1640625 0,0.15234375 0.140625,0.15234375 0.246093,0.15234375 z m 0,0"
         style="fill:#000000;fill-opacity:1;fill-rule:nonzero;stroke:none" />
      <path
         id="path68"
         d="m 18.406156,-2.7997812 c 0,-0.1757813 -0.02344,-0.1757813 -0.199219,-0.1757813 -0.398437,0.375 -1.007812,0.375 -1.21875,0.375 v 0.234375 c 0.152344,0 0.550782,0 0.902344,-0.1640625 v 3.0234375 c 0,0.1875 0,0.26953125 -0.609375,0.26953125 h -0.257812 v 0.234375 c 0.328125,-0.0234375 0.796875,-0.0234375 1.125,-0.0234375 0.339843,0 0.796875,0 1.136718,0.0234375 v -0.234375 H 19.02725 c -0.621094,0 -0.621094,-0.0820313 -0.621094,-0.26953125 z m 0,0"
         style="fill:#000000;fill-opacity:1;fill-rule:nonzero;stroke:none" />
    </g>
  </g>
</svg>
